# xmcd
#
# Track frame offsets: 
#        150
#        14085
#        28172
#        43192
#        57105
#        71480
#        85510
#        99757
#        114367
#        128337
#        141930
#        156585
#        170885
#        185802
#        200012
#        213240
#        226455
#        241627
#        254740
#        269305
#        282965
#        296900
#        311030
#        325072
#
# Disc length: 4518 seconds
#
# Revision: 2
# Processed by: cddbd v1.4PL0 Copyright (c) Steve Scherf et al.
# Submitted via: ExactAudioCopy v0.90b4
#
DISCID=6b11a418
DTITLE=Blind Boy Fuller - Complete Recorded Works in Chronological Ord
DTITLE=er - Volume 1
DYEAR=1992
DGENRE=Blues
TTITLE0=Baby, I Don't Have To Worry
TTITLE1=I'm A Rattlesnakin' Daddy
TTITLE2=I'm Climbin' On Top of the Hill
TTITLE3=Ain't It a Crying Shame
TTITLE4=Looking For My Woman
TTITLE5=Rag Mama Rag (unissued)
TTITLE6=Rag Mama Rag
TTITLE7=Baby, You Gotta Change Your Mind
TTITLE8=Evil Hearted Woman
TTITLE9=My Brownskin Sugar Plum
TTITLE10=Somebody's Been Playing with that Thing
TTITLE11=Log Cabin Blues
TTITLE12=Log Cabin Blues (unissued)
TTITLE13=Homesick and Lonesome Blues
TTITLE14=Walking My Troubles Away
TTITLE15=Walking My Troubles Away (unissued)
TTITLE16=Black and Tan
TTITLE17=Keep Away from My Woman
TTITLE18=Keep Away from My Woman (unissued)
TTITLE19=Babe You Got to Do Better
TTITLE20=Big Bed Blues
TTITLE21=Truckin' My Blues Away
TTITLE22=(I Got a Woman Crazy for Me) She's Funny That Way
TTITLE23=Cat Man Blues (unissued)
EXTD=
EXTT0=
EXTT1=
EXTT2=
EXTT3=
EXTT4=
EXTT5=
EXTT6=
EXTT7=
EXTT8=
EXTT9=
EXTT10=
EXTT11=
EXTT12=
EXTT13=
EXTT14=
EXTT15=
EXTT16=
EXTT17=
EXTT18=
EXTT19=
EXTT20=
EXTT21=
EXTT22=
EXTT23=
PLAYORDER=
